<svg width="48" height="48" viewBox="0 0 48 48" fill="none" xmlns="http://www.w3.org/2000/svg">
<path d="M39.9 42C35.6 42 31.4087 41.05 27.326 39.15C23.2433 37.25 19.6267 34.7167 16.476 31.55C13.3253 28.3833 10.792 24.758 8.876 20.674C6.96 16.59 6.00133 12.3987 6 8.1V7.05C6 6.68333 6.03333 6.33333 6.1 6H17.8L19.65 16.05L13.95 21.8C15.35 24.2 17.1087 26.45 19.226 28.55C21.3433 30.65 23.668 32.4667 26.2 34L32 28.2L42 30.2V41.9C41.6667 41.9333 41.3167 41.9587 40.95 41.976C40.5833 41.9933 40.2333 42.0013 39.9 42Z" fill="#F8F8F8"/>
</svg>
