<svg width="46" height="46" viewBox="0 0 46 46" fill="none" xmlns="http://www.w3.org/2000/svg">
<g filter="url(#filter0_d_46_548)">
<circle cx="23" cy="19" r="17" stroke="#1B203D" stroke-width="4" shape-rendering="crispEdges"/>
</g>
<g filter="url(#filter1_d_46_548)">
<path d="M23.2583 25.2542L23.1667 25.3458L23.0658 25.2542C18.7117 21.3033 15.8333 18.6908 15.8333 16.0417C15.8333 14.2083 17.2083 12.8333 19.0417 12.8333C20.4533 12.8333 21.8283 13.75 22.3142 14.9967H24.0192C24.505 13.75 25.88 12.8333 27.2917 12.8333C29.125 12.8333 30.5 14.2083 30.5 16.0417C30.5 18.6908 27.6217 21.3033 23.2583 25.2542ZM27.2917 11C25.6967 11 24.1658 11.7425 23.1667 12.9067C22.1675 11.7425 20.6367 11 19.0417 11C16.2183 11 14 13.2092 14 16.0417C14 19.4975 17.1167 22.33 21.8375 26.6108L23.1667 27.8208L24.4958 26.6108C29.2167 22.33 32.3333 19.4975 32.3333 16.0417C32.3333 13.2092 30.115 11 27.2917 11Z" fill="#1B203D"/>
</g>
<defs>
<filter id="filter0_d_46_548" x="0" y="0" width="46" height="46" filterUnits="userSpaceOnUse" color-interpolation-filters="sRGB">
<feFlood flood-opacity="0" result="BackgroundImageFix"/>
<feColorMatrix in="SourceAlpha" type="matrix" values="0 0 0 0 0 0 0 0 0 0 0 0 0 0 0 0 0 0 127 0" result="hardAlpha"/>
<feOffset dy="4"/>
<feGaussianBlur stdDeviation="2"/>
<feComposite in2="hardAlpha" operator="out"/>
<feColorMatrix type="matrix" values="0 0 0 0 0 0 0 0 0 0 0 0 0 0 0 0 0 0 0.25 0"/>
<feBlend mode="normal" in2="BackgroundImageFix" result="effect1_dropShadow_46_548"/>
<feBlend mode="normal" in="SourceGraphic" in2="effect1_dropShadow_46_548" result="shape"/>
</filter>
<filter id="filter1_d_46_548" x="10" y="11" width="26.3333" height="24.8208" filterUnits="userSpaceOnUse" color-interpolation-filters="sRGB">
<feFlood flood-opacity="0" result="BackgroundImageFix"/>
<feColorMatrix in="SourceAlpha" type="matrix" values="0 0 0 0 0 0 0 0 0 0 0 0 0 0 0 0 0 0 127 0" result="hardAlpha"/>
<feOffset dy="4"/>
<feGaussianBlur stdDeviation="2"/>
<feComposite in2="hardAlpha" operator="out"/>
<feColorMatrix type="matrix" values="0 0 0 0 0 0 0 0 0 0 0 0 0 0 0 0 0 0 0.25 0"/>
<feBlend mode="normal" in2="BackgroundImageFix" result="effect1_dropShadow_46_548"/>
<feBlend mode="normal" in="SourceGraphic" in2="effect1_dropShadow_46_548" result="shape"/>
</filter>
</defs>
</svg>
