<svg width="48" height="48" viewBox="0 0 48 48" fill="none" xmlns="http://www.w3.org/2000/svg">
<path d="M16.8001 44C15.7001 44 14.7587 43.6087 13.976 42.826C13.192 42.042 12.8 41.1 12.8 40C12.8 38.9 13.192 37.958 13.976 37.174C14.7587 36.3913 15.7001 36 16.8001 36C17.9001 36 18.8414 36.3913 19.6241 37.174C20.4081 37.958 20.8001 38.9 20.8001 40C20.8001 41.1 20.4081 42.042 19.6241 42.826C18.8414 43.6087 17.9001 44 16.8001 44ZM36.8001 44C35.7001 44 34.7587 43.6087 33.9761 42.826C33.1921 42.042 32.8001 41.1 32.8001 40C32.8001 38.9 33.1921 37.958 33.9761 37.174C34.7587 36.3913 35.7001 36 36.8001 36C37.9001 36 38.8421 36.3913 39.6261 37.174C40.4087 37.958 40.8001 38.9 40.8001 40C40.8001 41.1 40.4087 42.042 39.6261 42.826C38.8421 43.6087 37.9001 44 36.8001 44ZM15.1001 12L19.9001 22H33.9001L39.4001 12H15.1001ZM16.8001 34C15.3001 34 14.1667 33.3413 13.4001 32.024C12.6334 30.708 12.6 29.4 13.3 28.1L16 23.2L8.80005 8H6.75005C6.18338 8 5.71672 7.808 5.35005 7.424C4.98338 7.04133 4.80005 6.56667 4.80005 6C4.80005 5.43333 4.99205 4.958 5.37605 4.574C5.75872 4.19133 6.23338 4 6.80005 4H10.05C10.4167 4 10.7667 4.1 11.1 4.3C11.4334 4.5 11.6834 4.78333 11.85 5.15L13.2 8H42.7001C43.6001 8 44.2167 8.33333 44.5501 9C44.8834 9.66667 44.8667 10.3667 44.5001 11.1L37.4001 23.9C37.0334 24.5667 36.5501 25.0833 35.9501 25.45C35.3501 25.8167 34.6667 26 33.9001 26H19.0001L16.8001 30H38.8501C39.4167 30 39.8834 30.1913 40.2501 30.574C40.6167 30.958 40.8001 31.4333 40.8001 32C40.8001 32.5667 40.6081 33.0413 40.2241 33.424C39.8414 33.808 39.3667 34 38.8001 34H16.8001Z" fill="#1B203D"/>
</svg>
