<svg width="30" height="30" viewBox="0 0 30 30" fill="none" xmlns="http://www.w3.org/2000/svg">
<path d="M0 0H29.6711V29.6711H0V0Z" fill="white"/>
<path d="M27.214 2.45709H24.6178L17.2927 11.822L12.842 6.62959L0 25.2668V29.6711H2.96711L13.2593 14.6964L17.5245 19.6107L27.214 7.18593V2.45709Z" fill="#52C18E"/>
<path d="M29.6711 0H0V23.5051L1.39083 21.5116H0.973584V15.3455H5.6097L6.30512 14.372H0.973584V8.15956H7.13962V13.1202L8.1132 11.683V8.15956H10.524L11.2194 7.18598H8.1132V0.973584H14.2792V6.86145L15.3919 8.15956H18.869L19.6571 7.18598H15.2992V0.973584H21.4652V4.82156L22.4388 3.56981V0.973584H28.6048V7.13962H28.0949V7.51051L27.6312 8.1132H28.6048V14.2792H22.856L21.5116 16.041V21.4652H15.3455V18.5445L14.372 17.3854V21.4188H9.82856L9.13315 22.3924H14.372V28.5585H8.15956V23.876L7.18598 25.3132V28.6975H4.86792L4.1725 29.6711H29.6711V0ZM7.18598 7.18598H0.973584V0.973584H7.13962C7.18598 0.973584 7.18598 7.18598 7.18598 7.18598ZM21.5116 28.6975H15.3455V22.4852H21.5116V28.6975ZM28.6975 28.6975H22.4852V22.4852H28.6512V28.6975H28.6975ZM28.6975 21.5116H22.4852V15.3455H28.6512V21.5116H28.6975Z" fill="#D0D5D8"/>
</svg>
