<svg width="20" height="20" viewBox="0 0 20 20" fill="none" xmlns="http://www.w3.org/2000/svg">
<rect width="20" height="20" rx="3" fill="#2BAF20"/>
<path d="M0.888 11.024C0.749333 11.024 0.632 10.9787 0.536 10.888C0.445333 10.7973 0.4 10.6827 0.4 10.544C0.4 10.4053 0.445333 10.2933 0.536 10.208C0.632 10.1173 0.749333 10.072 0.888 10.072H2.28C2.41867 10.072 2.53333 10.12 2.624 10.216C2.72 10.3067 2.768 10.4213 2.768 10.56C2.768 10.6933 2.72 10.8053 2.624 10.896C2.53333 10.9813 2.41867 11.024 2.28 11.024H0.888ZM4.14787 11.872C4.19587 11.872 4.24654 11.88 4.29988 11.896C4.35854 11.912 4.42254 11.944 4.49187 11.992C4.58254 12.0613 4.68921 12.1227 4.81187 12.176C4.93988 12.2293 5.08654 12.256 5.25187 12.256C5.41721 12.256 5.57188 12.216 5.71588 12.136C5.86521 12.0507 5.98788 11.9333 6.08387 11.784C6.17987 11.6293 6.22787 11.4453 6.22787 11.232C6.22787 11.0293 6.18521 10.8613 6.09987 10.728C6.01988 10.5947 5.91054 10.4933 5.77188 10.424C5.63854 10.3547 5.49454 10.32 5.33987 10.32C5.22254 10.32 5.12387 10.3307 5.04387 10.352C4.96921 10.3733 4.89454 10.3973 4.81988 10.424C4.75054 10.4453 4.66788 10.456 4.57187 10.456C4.44921 10.456 4.35321 10.4133 4.28387 10.328C4.21987 10.2427 4.18787 10.1413 4.18787 10.024C4.18787 9.94933 4.20121 9.88267 4.22787 9.824C4.25987 9.76533 4.30521 9.70133 4.36388 9.632L5.77188 8.136L5.98787 8.32H4.01987C3.89187 8.32 3.78521 8.27733 3.69987 8.192C3.61454 8.10667 3.57187 8 3.57187 7.872C3.57187 7.74933 3.61454 7.648 3.69987 7.568C3.78521 7.48267 3.89187 7.44 4.01987 7.44H6.46788C6.63321 7.44 6.75588 7.48533 6.83588 7.576C6.92121 7.66667 6.96388 7.78133 6.96388 7.92C6.96388 7.98933 6.94521 8.05867 6.90788 8.128C6.87054 8.192 6.82521 8.25067 6.77188 8.304L5.35588 9.824L5.13988 9.552C5.19854 9.52533 5.27854 9.50133 5.37987 9.48C5.48654 9.45867 5.57454 9.448 5.64388 9.448C5.95854 9.448 6.23054 9.53067 6.45988 9.696C6.69454 9.856 6.87321 10.0667 6.99588 10.328C7.12388 10.584 7.18788 10.8613 7.18788 11.16C7.18788 11.5547 7.09988 11.896 6.92388 12.184C6.74788 12.472 6.49988 12.6933 6.17988 12.848C5.85988 13.0027 5.48654 13.08 5.05988 13.08C4.86254 13.08 4.66788 13.056 4.47588 13.008C4.28387 12.96 4.11854 12.896 3.97987 12.816C3.86254 12.752 3.78254 12.6827 3.73987 12.608C3.70254 12.528 3.68387 12.4533 3.68387 12.384C3.68387 12.2613 3.72654 12.1467 3.81187 12.04C3.90254 11.928 4.01454 11.872 4.14787 11.872ZM10.0847 13.08C9.62608 13.08 9.23675 12.96 8.91675 12.72C8.60208 12.4747 8.36208 12.136 8.19675 11.704C8.03142 11.2667 7.94875 10.7653 7.94875 10.2C7.94875 9.62933 8.03142 9.128 8.19675 8.696C8.36208 8.264 8.60208 7.928 8.91675 7.688C9.23675 7.44267 9.62608 7.32 10.0847 7.32C10.5434 7.32 10.9301 7.44267 11.2448 7.688C11.5648 7.928 11.8074 8.264 11.9728 8.696C12.1381 9.128 12.2207 9.62933 12.2207 10.2C12.2207 10.7653 12.1381 11.2667 11.9728 11.704C11.8074 12.136 11.5648 12.4747 11.2448 12.72C10.9301 12.96 10.5434 13.08 10.0847 13.08ZM10.0847 12.12C10.3087 12.12 10.5007 12.0507 10.6607 11.912C10.8261 11.768 10.9541 11.5547 11.0447 11.272C11.1354 10.984 11.1808 10.6267 11.1808 10.2C11.1808 9.768 11.1354 9.41067 11.0447 9.128C10.9541 8.84533 10.8261 8.63467 10.6607 8.496C10.5007 8.352 10.3087 8.28 10.0847 8.28C9.86608 8.28 9.67408 8.352 9.50875 8.496C9.34342 8.63467 9.21542 8.84533 9.12475 9.128C9.03408 9.41067 8.98875 9.768 8.98875 10.2C8.98875 10.6267 9.03408 10.984 9.12475 11.272C9.21542 11.5547 9.34342 11.768 9.50875 11.912C9.67408 12.0507 9.86608 12.12 10.0847 12.12ZM14.1748 10.44C13.9188 10.44 13.6921 10.3707 13.4948 10.232C13.2975 10.0933 13.1428 9.90667 13.0308 9.672C12.9188 9.43733 12.8628 9.176 12.8628 8.888C12.8628 8.59467 12.9188 8.33067 13.0308 8.096C13.1428 7.86133 13.2975 7.67467 13.4948 7.536C13.6921 7.39733 13.9188 7.328 14.1748 7.328C14.4361 7.328 14.6628 7.39733 14.8548 7.536C15.0521 7.67467 15.2041 7.86133 15.3108 8.096C15.4228 8.33067 15.4788 8.59467 15.4788 8.888C15.4788 9.176 15.4201 9.43733 15.3028 9.672C15.1855 9.90667 15.0281 10.0933 14.8308 10.232C14.6388 10.3707 14.4201 10.44 14.1748 10.44ZM14.1748 9.728C14.3348 9.728 14.4575 9.648 14.5428 9.488C14.6335 9.328 14.6788 9.128 14.6788 8.888C14.6788 8.648 14.6361 8.448 14.5508 8.288C14.4655 8.128 14.3401 8.048 14.1748 8.048C14.0148 8.048 13.8895 8.128 13.7988 8.288C13.7081 8.448 13.6628 8.648 13.6628 8.888C13.6628 9.128 13.7055 9.328 13.7908 9.488C13.8815 9.648 14.0095 9.728 14.1748 9.728ZM17.6068 13.08C17.3615 13.08 17.1401 13.0107 16.9428 12.872C16.7455 12.7333 16.5881 12.5467 16.4708 12.312C16.3535 12.0773 16.2948 11.816 16.2948 11.528C16.2948 11.2347 16.3508 10.9707 16.4628 10.736C16.5748 10.5013 16.7295 10.3147 16.9268 10.176C17.1241 10.0373 17.3508 9.968 17.6068 9.968C17.8681 9.968 18.0948 10.0373 18.2868 10.176C18.4841 10.3147 18.6361 10.5013 18.7428 10.736C18.8548 10.9707 18.9108 11.2347 18.9108 11.528C18.9108 11.816 18.8521 12.0773 18.7348 12.312C18.6175 12.5467 18.4601 12.7333 18.2628 12.872C18.0708 13.0107 17.8521 13.08 17.6068 13.08ZM17.6068 12.368C17.7668 12.368 17.8895 12.288 17.9748 12.128C18.0655 11.968 18.1108 11.768 18.1108 11.528C18.1108 11.288 18.0681 11.088 17.9828 10.928C17.8975 10.768 17.7721 10.688 17.6068 10.688C17.4468 10.688 17.3215 10.768 17.2308 10.928C17.1401 11.088 17.0948 11.288 17.0948 11.528C17.0948 11.768 17.1375 11.968 17.2228 12.128C17.3135 12.288 17.4415 12.368 17.6068 12.368ZM14.2708 13.016C14.1855 13.016 14.0948 12.9813 13.9988 12.912C13.9028 12.8373 13.8548 12.7413 13.8548 12.624C13.8548 12.5547 13.8815 12.4747 13.9348 12.384L17.1188 7.576C17.2148 7.448 17.3241 7.384 17.4468 7.384C17.5375 7.384 17.6281 7.41867 17.7188 7.488C17.8148 7.55733 17.8628 7.65333 17.8628 7.776C17.8628 7.84533 17.8361 7.92533 17.7828 8.016L14.5988 12.824C14.5028 12.952 14.3935 13.016 14.2708 13.016Z" fill="white"/>
</svg>
