<svg width="39" height="36" viewBox="0 0 39 36" fill="none" xmlns="http://www.w3.org/2000/svg">
<path d="M19.544 30.1667L19.351 30.3597L19.1387 30.1667C9.97203 21.8491 3.91238 16.3491 3.91238 10.7719C3.91238 6.91228 6.80712 4.01755 10.6668 4.01755C13.6387 4.01755 16.5334 5.94737 17.5562 8.57193H21.1457C22.1685 5.94737 25.0633 4.01755 28.0352 4.01755C31.8948 4.01755 34.7896 6.91228 34.7896 10.7719C34.7896 16.3491 28.7299 21.8491 19.544 30.1667ZM28.0352 0.157898C24.6773 0.157898 21.4545 1.72106 19.351 4.17193C17.2475 1.72106 14.0247 0.157898 10.6668 0.157898C4.72291 0.157898 0.0527344 4.80878 0.0527344 10.7719C0.0527344 18.0474 6.61414 24.0105 16.5527 33.0228L19.351 35.5702L22.1492 33.0228C32.0878 24.0105 38.6492 18.0474 38.6492 10.7719C38.6492 4.80878 33.979 0.157898 28.0352 0.157898Z" fill="#1B203D"/>
</svg>
