<svg width="28" height="33" viewBox="0 0 28 33" fill="none" xmlns="http://www.w3.org/2000/svg">
<path d="M27.3128 12.9816C27.3128 12.9816 25.7036 14.4836 22.9678 16.2538C22.2168 11.9087 20.1247 6.54444 16.0478 0C16.0478 0 14.7068 7.02722 10.2544 13.6253C8.32325 10.6213 7.46496 8.26101 7.46496 8.26101C-6.48219 22.2618 5.10467 32.1857 12.4001 32.1857C21.734 32.1857 29.9413 27.6797 27.3128 12.9816Z" fill="#FF9D33"/>
<path d="M21.7876 25.4267C22.5923 23.6565 23.1823 21.3499 23.2896 18.4532C23.2896 18.4532 22.1631 19.4187 20.232 20.6525C19.6955 17.7558 18.2472 14.2154 15.4041 9.81665C15.4041 9.81665 14.4922 14.4836 11.3809 18.9359C10.0398 16.9512 9.44974 15.3419 9.44974 15.3419C7.1431 18.9896 6.23117 21.8863 6.17752 24.193C4.89009 23.7102 4.08545 23.3347 4.08545 23.3347C6.28481 29.8791 10.8445 31.3275 12.8829 31.3275C16.5306 31.3275 20.232 30.2546 23.8797 25.0512C23.8797 24.9976 23.075 25.2122 21.7876 25.4267Z" fill="#FFCE31"/>
<path d="M8.48419 22.4764C8.48419 22.4764 9.98619 24.5148 11.1127 24.032C11.1127 24.032 13.2584 20.6525 16.3697 18.775C16.3697 18.775 15.726 23.9247 16.477 24.8367C17.4426 26.0705 20.0711 23.4956 20.0711 23.4956C20.0711 26.5532 16.7452 30.3619 13.7412 30.3619C10.8445 30.3619 6.66033 27.036 8.48419 22.4764Z" fill="#FFDF85"/>
<path d="M23.4505 8.6365C24.577 7.02721 25.328 5.31064 25.328 5.31064C27.2055 8.42193 26.079 10.2994 25.2744 10.8895C24.1479 11.7478 22.1631 10.514 23.4505 8.6365ZM2.95892 8.10007C1.83242 6.22257 1.72513 3.86228 1.72513 3.86228C-0.957015 7.8855 0.0622007 10.1385 0.97413 10.7822C2.15427 11.6941 4.19271 10.2994 2.95892 8.10007ZM9.1815 3.91592C9.34243 2.62849 8.806 1.34106 8.806 1.34106C11.3272 3.00399 11.3272 4.39871 11.0054 4.98878C10.5226 5.68614 9.02057 5.36428 9.1815 3.91592Z" fill="#FF9D33"/>
</svg>
